# xmcd CD database file
#
# Track frame offsets:
#	150
#	11398
#	23732
#	35830
#	51000
#	62109
#	77103
#	92243
#	105653
#	120349
#	134105
#	149713
#	163046
#	175959
#	191533
#	204006
#	216467
#	230732
#	245459
#	259440
#	272254
#	286575
#	300830
#	316026
#	329801
#
# Disc length: 4555 seconds
#
# Revision: 0
# Processed by: cddbd v1.5.1PL0 Copyright (c) Steve Scherf et al.
# Submitted via: CDex 1.51
#
DISCID=6a11c919
DTITLE=Various Artist - Hits of '23
DYEAR=1900
DGENRE=Jazz
TTITLE0=Al Jolson - Toot, Toot, Tootsie, Goo'bye!
TTITLE1=Paul Whiteman - Crinoline Days
TTITLE2=Van and Schenck - Carolina in the Morning
TTITLE3=Marion Harris - Aggravatin' Papa
TTITLE4=King Oliver with Louis Armstrong - Dippermouth Blues
TTITLE5=Miss Patricola - Lovin' Sam, The Sheik Of Alabam'
TTITLE6=Henry Burr - Faded Love Letters
TTITLE7=Paul Whiteman - The Parade of the Wooden Soldiers
TTITLE8=John Steel - Lady of the Evening
TTITLE9=Arthur Gibbs - Louisville Lou, The Vampin' Lady
TTITLE10=Bessie Smith - Downhearted Blues
TTITLE11=Paul Whiteman - Wonderful One
TTITLE12=Billy Jones - Yes, We Have No Bananas
TTITLE13=Isham Jones - Marcheta
TTITLE14=Sophie Tucker - You've Got To See Mama Ev'ry Night
TTITLE15=Paul Whiteman - Bambalina
TTITLE16=Georgie Price - Barney Google
TTITLE17=Bennie Krueger - I Cried For You
TTITLE18=Bill Murray and Ed Smalle - That Old Gang of Mine
TTITLE19=Art Landry - Dreamy Melody
TTITLE20=Eddie Cantor - No, No, Nora
TTITLE21=Paul Whiteman with The American Quartet - Last Night On The Back Porch
TTITLE22=Henry Burr - Just a Girl That Men Forgot
TTITLE23=Isham Jones - Swingin' Down The Lane
TTITLE24=John McCormack - Love Sends A Little Gift Of Roses
EXTD=
EXTT0=
EXTT1=
EXTT2=
EXTT3=
EXTT4=
EXTT5=
EXTT6=
EXTT7=
EXTT8=
EXTT9=
EXTT10=
EXTT11=
EXTT12=
EXTT13=
EXTT14=
EXTT15=
EXTT16=
EXTT17=
EXTT18=
EXTT19=
EXTT20=
EXTT21=
EXTT22=
EXTT23=
EXTT24=
PLAYORDER=
